<?xml version="1.0" standalone="no"?>
<!DOCTYPE svg PUBLIC "-//W3C//DTD SVG 20010904//EN"
 "http://www.w3.org/TR/2001/REC-SVG-20010904/DTD/svg10.dtd">
<svg version="1.0" xmlns="http://www.w3.org/2000/svg"
 width="360.000000pt" height="360.000000pt" viewBox="0 0 360.000000 360.000000"
 preserveAspectRatio="xMidYMid meet">

<g transform="translate(0.000000,360.000000) scale(0.100000,-0.100000)"
fill="#000000" stroke="none">
<path d="M1803 2508 c-16 -13 -55 -50 -87 -83 l-56 -60 72 -72 c40 -40 77 -72
83 -72 70 8 125 -35 125 -98 0 -35 8 -46 75 -113 65 -65 79 -74 112 -75 52 -1
90 -29 104 -75 28 -92 -43 -162 -139 -138 -40 11 -72 59 -72 110 0 30 -9 45
-54 92 -29 31 -59 56 -65 56 -8 0 -11 -56 -11 -193 l0 -194 40 -41 c51 -55 60
-99 32 -158 -15 -30 -34 -50 -61 -64 -50 -25 -74 -25 -126 0 -79 38 -103 136
-51 205 16 20 34 39 42 42 11 4 14 46 14 225 l0 220 -25 30 c-18 21 -25 41
-25 72 0 38 -5 47 -69 110 l-68 68 -232 -231 c-127 -126 -236 -242 -241 -257
-6 -15 -8 -36 -4 -48 3 -11 164 -180 357 -373 343 -344 353 -353 391 -353 38
0 48 9 376 338 185 185 345 349 354 364 36 55 28 66 -345 439 -319 319 -351
349 -382 349 -19 0 -46 -10 -64 -22z"/>
</g>
</svg>
